<svg id="Ebene_1" data-name="Ebene 1" xmlns="http://www.w3.org/2000/svg" viewBox="0 0 1000 1000">
  <defs>
    <style>
      .cls-1 {
        fill: #ddd;
      }
    </style>
  </defs>
  <path class="cls-1" d="M997.75,191.65a424.78,424.78,0,0,1-117.47,32.2A202.77,202.77,0,0,0,970,111.17a407.85,407.85,0,0,1-129.28,49.35A204.32,204.32,0,0,0,691.77,96C578.9,96,488,187.61,488,299.93a209.68,209.68,0,0,0,4.72,46.49c-169.49-8.27-319.47-89.5-420.22-213.25a203.92,203.92,0,0,0,62.65,272.48c-32.76-.62-64.89-10.13-92.11-25.11v2.24c0,99.07,70.67,181.36,163.34,200.32A203.38,203.38,0,0,1,153,589.81c-13.06,0-26.23-.74-38.6-3.48,26.41,80.74,101.37,140.1,190.5,142a409.66,409.66,0,0,1-252.78,87,382,382,0,0,1-48.79-2.8C93.6,870.75,200.63,904,316.05,904c375.16,0,580.27-310.77,580.27-580.14,0-9-.32-17.72-.75-26.36C936,268.79,970,232.92,997.75,191.65Z"/>
</svg>
